/* XPM */
static char *_f7c3fc70f2848e7e9a660d2f7c7d8e8iNER9Q4R2wjpDRiV[] = {
/* columns rows colors chars-per-pixel */
"64 64 97 2 ",
"   c None",
".  c black",
"X  c #120108",
"o  c #1E0C16",
"O  c #2D0001",
"+  c #04062A",
"@  c #171121",
"#  c #120F3A",
"$  c #291B26",
"%  c #352936",
"&  c #450004",
"*  c #5E0103",
"=  c #6F030A",
"-  c #241E49",
";  c #04364E",
":  c #3A3251",
">  c #060965",
",  c #223E6E",
"<  c #045D56",
"1  c #2E4A77",
"2  c #464064",
"3  c #515177",
"4  c #88040C",
"5  c #9F020B",
"6  c #B5030C",
"7  c #A03B00",
"8  c #CE1705",
"9  c #FF0300",
"0  c #BB4E00",
"q  c #BA6302",
"w  c #F75E01",
"e  c #D57309",
"r  c #CB4D53",
"t  c #008860",
"y  c #F89702",
"u  c #F4AA00",
"i  c #FEBB00",
"p  c #F0D700",
"a  c #FFD000",
"s  c #FCE805",
"d  c #F0F001",
"f  c #F1FA00",
"g  c #FEFE03",
"h  c #F4934D",
"j  c #C8AF4A",
"k  c #000389",
"l  c #0018B8",
"z  c #3B5984",
"x  c #315BA8",
"c  c #49658E",
"v  c #55769B",
"b  c #0429D2",
"n  c #0540F6",
"m  c #006AFD",
"M  c #268099",
"N  c #5C83A4",
"B  c #5D9EB5",
"V  c #6C92A9",
"C  c #7B9FAF",
"Z  c #2BA0C3",
"A  c #1589F2",
"S  c #0C9CFF",
"D  c #33A4F2",
"F  c #519BDB",
"G  c #709FCE",
"H  c #39D1FA",
"J  c #7DC5DF",
"K  c #9AABA5",
"L  c #81A7B6",
"P  c #F4B181",
"I  c #F9C79D",
"U  c #FBE4AC",
"Y  c #89B2C0",
"T  c #94BFC9",
"R  c #9DCBD4",
"E  c #AFD1CF",
"W  c #B6DCD9",
"Q  c #A0DFE8",
"!  c #83EAFA",
"~  c #B1F6F8",
"^  c #F6C7D1",
"/  c #FDF7DC",
"(  c #C3E8E2",
")  c #D2F3EA",
"_  c #CFFEFA",
"`  c #E6E6E6",
"'  c #F1EDEC",
"]  c #E2E7FA",
"[  c #EFF2F2",
"{  c #EFFFF3",
"}  c #E5FFFE",
"|  c #FBF5F4",
" . c #F0F2FF",
".. c azure",
"X. c #F7FFFF",
"o. c #FFFDF9",
"O. c white",
/* pixels */
"                                                                                                                                ",
"                                                                                                                                ",
"                                                                                                                                ",
"                                                                                                                                ",
"                                                                                                                                ",
"                                                                                                                                ",
"                                                                                                                                ",
"                                                                                                                                ",
"                                                                                                                                ",
"                                                                                                                                ",
"                                                                                                                                ",
"                                                                                                                                ",
"                                                                                                                                ",
"                                                                                                                                ",
"                                                                                                                                ",
"              . 1 v ( R E R E R E E W W W W o.o.o.o.| o.O.O.O.O.O.O.o.| | | | W W ( ( ( W ( ( W ( W ( ( N 1 .                   ",
"              1 Y ( ( ( ( ( ( ( ` / n n n n n n n / ` ) ` ) ) _ _ _ _ _ _ ) { ( ( ( ( W ( ( W ( ( ( ( ( ( Y z                   ",
"              , C ) # x z 3 3 n n m l m S A A A A n n n n n $ % % - > - % m l - > > x x x x x x x x x # ) C 1                   ",
"              , C ) z w w m m A A m H 8 b S A D D A A A A A S m m w w w A b b w 0 0 0 0 0 0 0 0 0 0 e x ) C 1                   ",
"              , C ) K m m S A A A A S w 5 n m S D D D D D A A A S m m b b > n g s s s s s s s s s g i G ( C 1                   ",
"              , L / n A A A A A A A S h q e 6 m S D D D D D D A A A A m > > n g f f f f f g ! ! g s u F ( C 1                   ",
"              , K n A m m m m m A A S h I h e 6 S A D ! ! A D D A A A S m > n g d g g d g ! ( ) A s u F ( C 1                   ",
"              , K A m l l l l l m m S h I I I S S S A A A ! ! A D A A A D m k g g ! ! g g ! | O.Z s u F ( C 1                   ",
"              , L ` L a n m > b l m S h I P m S m l l l m A ! ! A D A A A D m g ! ( ) A a ! | O.Z s u F ( C 1                   ",
"              , C ( F i s g m > l m S h P S A m @ B B B @ m A ! ! D D A m m S l ~ o.O.Z s ! o.O.Z s u F ( C 1                   ",
"              , C ( F u p g g m l m S y S A A l ~ O.O.O.~ @ m m ! A D A @ K m S N O.o.! s M ( O.Z s u F ( C 1                   ",
"              1 C ( F u s g g m l S A S D A n V O.o.o.o.O.~ @ A D ! D n B _ l m B ( | ( ~ B ) O.Z s u F ( C ,                   ",
"              1 C ( F i g m m l l m A D D A n ( O.! M ! o.o.~ n A D A @ O.O.V n g ! o.O.B # B ) Z s u F ( C ,                   ",
"              1 C ( G i A m l l l m A D D A n ( O.+ O.+ O.[ o.N n S m B O.o.~ b g A ) O.B ; B Q Q A i F ( C ,                   ",
"              1 C ( K S m l b b l m A A D A n ( O.. ! . O.[ | ~ n S . G Q | ~ b g s Z ) ~ + ~ o.O.! i F ( C ,                   ",
"              1 C ` A m l b b > b l m A A A n ( O.. M . O.[ [ o.N m . < ~ o.~ b g s Z ~ ~ M ) o.( Z i G ( C ,                   ",
"              1 L / m l b b > > b l m A A A m N O.. . . O.[ ' o.Q G . . ~ o.~ k g A ~ + N ~ O.( M ~ Z V ( C ,                   ",
"              1 K A m b > > > > > b l m A A S @ _ < . ; O.[ [ [ o.~ . . ~ O.B > B ) O.B B ~ ) M ( O.~ N ( C ,                   ",
"              1 K m l > m m m n k > b l m S A n ~ B ; Z O.[ [  .X.O.. < O.N < > { o.) B ; ; B ) O.) B B ( C ,                   ",
"              1 K l b m g g g g b > > b b y P P P / / O.X.....^ P U < ! G } k ; O.) ~ # B B # _ ..B ; B ( C ,                   ",
"              1 L ) Y i s g g A b > k k 5 I o.0 P h I ^ ^ ^ P h 4 M . . . t O G ~ M + B ~ _ B ; ; ; ; L ( C ,                   ",
"              1 C ( F u s g m m b > k & e I h . . 5 P h h I P U . . . M M O 5 D ~ ~ _ B ~ ~ B J < ; F C ( C ,                   ",
"              1 C ( F u s m m b > k k O e U P O & O . 5 e P I I e 5 5 h 5 4 r g Z _ B # B B Y ; ; J i G ( C ,                   ",
"              1 C ( F i g m l > k k k & 5 P U . 5 5 5 X O . = I h q e j = r g g # N N B ; ; < < ; D i F ( C ,                   ",
"              1 C ( F i A l b > k k k k O e P / 9 9 9 5 . e U I I P e = r g g A ~ ) Q ~ B G ; , D g u F ( C ,                   ",
"              1 C ( G a m b > k > > > k k O e P / * = e P U h P q e = r g f g A ] o.o.o.) _ Y ; g s u F ( C ,                   ",
"              1 L ( C m b > > > b b b b b k . = 0 h h h 7 7 0 * = = g g f d g g M Q W W Q M + F g a y B ( L 1                   ",
"              # Y ( ` m b > b b o.o.o.o.o.X.} O.O.O.O.O.O.O.O.O.O.O.O.O.O.O.O._ _ ) ) ) ) } ..} _ _ _ ( ( Y #                   ",
"              . N T Y T E E E T Y L L L L L L C C C C C C C C C C C C C C C C L L L L L L L L L L L L L T N X                   ",
"              . . . . # # # # # # # # # # # # # # # # - : 2 2 2 2 : - # # # # # # # # # # # # # # # # . . . .                   ",
"                                                        . % $ $ % .                                                             ",
"                                                        . 2 v v 2 .                                                             ",
"                                                        # c W W c #                                                             ",
"                                                        1 L _ W L 1                                                             ",
"                                                        , C ) W C ,                                                             ",
"                                                        , C ) W C ,                                                             ",
"                                                        , C ) W C ,                                                             ",
"                                                        , V ( E V ,                                                             ",
"                                                      N ( ) O.O.) ( N                                                           ",
"                                                      , C W ( ( W C ,                                                           ",
"                                                      # z V Y Y V z #                                                           ",
"                                                  1 - c L T ( ( T L c - z                                                       ",
"                                              1 - o N T R ) o.o.) R Y N o : z                                                   ",
"                                          V # X X - - + N L W W L N 1 - - X X - 1                                               ",
"                                      N z - T ( ..} O.O.O.o.| | o.O.O.O.} ..( R : z N                                           ",
"                                      , # . 1 N L C W W | [ [ | [ | W W L Y N 1 . # ,                                           ",
"                                                                                                                                ",
"                                                                                                                                ",
"                                                                                                                                "
};
