/* XPM */
static char *_73a0edc83a0444bfec8681c547195606wirt7zvDNxknNUV[] = {
/* columns rows colors chars-per-pixel */
"64 64 151 2 ",
"   c #00B600",
".  c #02BC00",
"X  c #0ABE00",
"o  c #15B700",
"O  c #12BD00",
"+  c #1BBD00",
"@  c #26B700",
"#  c #2BB600",
"$  c #23BE00",
"%  c #2BBE00",
"&  c #30B600",
"*  c #32BE00",
"=  c #3BBE02",
"-  c #45BF06",
";  c #45BF08",
":  c #05C200",
">  c #0DC300",
",  c #14C500",
"<  c #19C600",
"1  c #14CA00",
"2  c #1CCA00",
"3  c #0FD200",
"4  c #12D300",
"5  c #1BD300",
"6  c #1BDA00",
"7  c #23C500",
"8  c #2BC300",
"9  c #23CC00",
"0  c #2ACE00",
"q  c #34C400",
"w  c #3BC501",
"e  c #32CD00",
"r  c #3BCD00",
"t  c #24D200",
"y  c #2CD200",
"u  c #25DC00",
"i  c #2CDB00",
"p  c #32D300",
"a  c #3AD500",
"s  c #34DA00",
"d  c #3CDB00",
"f  c #1CE400",
"g  c #1DEA00",
"h  c #22E500",
"j  c #2CE300",
"k  c #22EA00",
"l  c #34E400",
"z  c #3EE200",
"x  c #32EA00",
"c  c #43C502",
"v  c #4BC503",
"b  c #43CC01",
"n  c #4CCA02",
"m  c #45C408",
"M  c #4CC408",
"N  c #4CC908",
"B  c #51C704",
"V  c #54CD05",
"C  c #54C508",
"Z  c #59C708",
"A  c #53C808",
"S  c #5CCC08",
"D  c #42D500",
"F  c #49D500",
"G  c #40DE00",
"H  c #42DE00",
"J  c #42DF00",
"K  c #42DD00",
"L  c #45DC00",
"P  c #45DE00",
"I  c #45DF00",
"U  c #47DE00",
"Y  c #47DF00",
"T  c #43DC00",
"R  c #48D800",
"E  c #4BD800",
"W  c #48DA00",
"Q  c #49DA00",
"!  c #4ADA00",
"~  c #4ADB00",
"^  c #4FD900",
"/  c #4ADD00",
"(  c #48DF00",
")  c #4ADF00",
"_  c #4FDC00",
"`  c #4EDD00",
"'  c #4CDE00",
"]  c #4FDF00",
"[  c #4ADD00",
"{  c #57D500",
"}  c #56D005",
"|  c #55D305",
" . c #52D105",
".. c #5AD106",
"X. c #5BD005",
"o. c #5ED105",
"O. c #5ED205",
"+. c #5FD306",
"@. c #57D900",
"#. c #51DD00",
"$. c #50DE00",
"%. c #53DE00",
"&. c #52DF00",
"*. c #54DE00",
"=. c #52DE00",
"-. c #59D802",
";. c #63CB08",
":. c #67CB08",
">. c #60CF08",
",. c #68CB08",
"<. c #6BCB08",
"1. c #61D505",
"2. c #69D208",
"3. c #69D408",
"4. c #45E100",
"5. c #4AE100",
"6. c #4BE100",
"7. c #49E300",
"8. c #4AE200",
"9. c #4AE300",
"0. c #4EE100",
"q. c #4EE600",
"w. c #4EE700",
"e. c #4CE300",
"r. c #4BE800",
"t. c #52E000",
"y. c #51E300",
"u. c #52E200",
"i. c #53E200",
"p. c #52E300",
"a. c #53E300",
"s. c #54E000",
"d. c #56E000",
"f. c #57E000",
"g. c #54E200",
"h. c #55E300",
"j. c #52E500",
"k. c #52E600",
"l. c #54E600",
"z. c #56E700",
"x. c #53E400",
"c. c #5AE000",
"v. c #58E200",
"b. c #5AE300",
"n. c #5AE500",
"m. c #5AE600",
"M. c #5CE600",
"N. c #5AE500",
"B. c #56E900",
"V. c #5BEA00",
"C. c #64ED00",
/* pixels */
"F _ d.R a p D _ &.O.S Z Z S <.:.:.<.:.<.;.S ..-.*.&.Q 0 d F | -.{ Z C C C C C C m C C - ; = = Z n v v - ; ; ; C Z Z S Z C M C Z ",
"7.j.u.Q p a d K 7.n.1.X.V O.O.O.3.2.>.S }  .&.j.u.&.R y s d 7.*./ B v c = Z C Z 7 b w q = & * c c * * $ w q w M A A M M ; - M v ",
"/ l.v.Q p a d Y 7.u.Q F r a D K d.v.F a a d Y 6.u.&.R y d K / u.Y n c w * A B B 9 p e 7 q q % q w % % O + $ 8 r b F q 8 * * c q ",
"/ d.d.Q e d D z 7.u.Q a e p 4.d q.j.F a p s d 7.d.u.R 0 a D Q _ d e n w 8 q m q 9 y 0 < % % $ 8 q 0 8 X X X < 9 t 9 9 , $ q 8 0 ",
"j.n.u.D p a D 4.7.j.R a p p / 7.B.M.D a p s Y 6.j.u.F 0 s K / n.z 0 p w 8 $ 8 9 t p 0 < X X . 2 t p 9 : : . : 5 5 t 2 : . O < 9 ",
"z.n.u.D e a d K / l.! a p a 7.l.B.n.D a p d Y 7.u.6.d y s d u.V.l 0 y 0 8 $ 7 7 9 y 9 2 X . X 2 0 e 0 X . : : 1 t y 2 > . X < 9 ",
"z.n.&.D a a D 4.q.j.Y p y a 7.z.n.n.D a p d r.q.l.u.d 0 p K q.V.l 0 p 9 8 7 % < 9 y 9 < X . . < 9 p 0 > . . : 9 0 0 9 > . . > 9 ",
"z.B._ d a a 4.q.z.j.Y p y y 7.j.V.v.d p y d k.V.V.u.D y i K 6.C.l 8 e 7 , O O > 9 y 0 < X   . < y y 9 : . . : 2 y 0 2 > : : > 9 ",
"z.n.&.a p p d q.B.z.Y p 0 p 7.j.V.z.d y t d k.V.V.u.d y s d u.V.l 0 e 9 , . . , 9 y 0 < X   . 2 0 y 9 , . . : 9 y 9 9 X . X > 9 ",
"V.n.u.d y 2 s q.B.z.R a p y w.z.V.n.a t 2 y r.B.n.u.d p p K q.C.l e 0 9 , . . , 9 0 9 < X . . < 0 0 0 , . . : 2 0 y < , . . 1 2 ",
"B.l.u.d 9 1 s r.B.V.7.p p t 7.l.B.n.a 0 1 t k.B.z.d.D p y d 6.V.l 0 e 9 >   . > 9 y 9 2 X . . 2 y 0 9 X . . : 2 0 0 2 > . . < 2 ",
"u.u.d y 9 t s r.B.B.Y a p 9 a 7.n._ p 0 2 t k.V.B.q.d y 9 t d n.i 0 q 9 , . : < 9 p y < X . . 7 y 9 0 > . . . 9 y e 9 , . . < 9 ",
"/ / a t 2 2 s q.z.n.! p e 2 9 Q d.Q p 0 2 y w.C.V.6.d y 9 < p j.i 0 e y 7 : . 1 p d y 9 > . . 2 y 0 0 1 : : : y a p 0 < . X < 9 ",
"_ 6.d 0 < 2 l q.B.q.a 9 9 < t / l.Y 9 2 , t w.B.u.K p 9 9 2 a V.i 0 q p 9 , . < a R a 0 < X . 2 0 y 0 9 > : : y R d 0 9 . X , 9 ",
"/ _ D 9 X 2 d q.B._ 0 < 1 , t 7.q.K 2 > : u q.z.7.a 9 < < 9 d n.s a a 0 9 O . 1 p 7.D 0 < < > 9 a a p 2 > . : y / Y p 9 O < < e ",
"/ D a 0 : > t Y j.7.y 1 2 , t d Y d 9 > : 2 K j.7.d 9 < 9 9 a _ y _ d e 0 X . 1 s q.7.p 2 9 1 5 d d a 2 < . > p d.6.d 0 < 9 9 a ",
"&.a 0 0 X . 1 s q.7.p 9 2 , t K D s 9 > . > s n.6.d 0 7 9 9 a R t / D a 0 , > t K z._ y 2 2 , t K 7.d 9 , : 1 d k.q.D y 1 2 9 a ",
"/ F r 9 X > t Y j./ 0 2 2 , t d Y d 2 , : 1 K j._ d 9 < 9 2 d _ y Y F a 0 : > t K z.6.p 2 1 1 9 d 7.d 2 , : 1 4.j.7.a 9 < 9 9 a ",
"7._ d 0 X 2 s q.z.7.0 < 1 , t 7.q.K 2 : > y r.z.7.s 9 < < 9 d n.s 6.D e 7 X . 1 s q._ y 9 2 , 5 K d a 9 , . > s u.&.d 0 7 9 7 a ",
"_ _ d 0 , 2 s q.z.6.a 9 9 < t Y l./ 0 2 , t k.B.6.K y 9 9 2 a M.s d p e 9 > : , p 7.Y 0 < < , 9 a a 0 2 > . : y 7.Y p 0 , < < e ",
"/ / a y 2 5 d r.V.z.Y p p 2 9 R l.R e 9 1 y j.V.B.u.d y 9 2 a l.i 0 q p 9 , . , a R a t , X . < y 0 0 2 , . . y K a e 2 . X < 9 ",
"j.6.d p 9 2 s r.B.B./ a p 9 p 7.n._ a 0 1 u k.V.B.q.D p 9 2 d n.i 0 0 y 7 . . < p d y 9 , .   9 0 t 9 2 > . : y a a 0 < . . , 9 ",
"B.j.6.a t 1 s w.B.B.R a p 0 4.j.B.l.a t 1 y k.B.n.d.d y y s 6.V.l 0 e 0 , . . , 9 p y < X X . 2 y 0 0 , . . . 9 y y 9 , . . < 2 ",
"V.n.u.D t 2 s r.B.z.R p a y q.z.B.n.a t 2 u r.V.B.j.D p s K j.V.s 0 e < ,   : > 9 y 9 < X . . < y 0 9 X . . . 2 9 0 < , . . , 9 ",
"B.n.u.a p p d q.B.k.Y p y p 7.j.V.n.a p 9 s j.V.B.u.D y p d k.C.l 0 0 9 ,   . > 9 y 0 < X .   2 t 0 9 , . . : 2 y 0 2 ,   . < 2 ",
"n.B._ d a a K q.V.k.Y p y p 7.j.V.V.d p p d j.V.C.6.d y i 4.q.V.l 0 0 9 ,   . > 9 0 0 1 . . . 2 9 y 9 , . . : 2 0 y 9 X . . , 2 ",
"l.n.&.d p a d 7.q.j.Y p p p 7.z.B.n.D p p d 6.j.l.u.d 0 p d / v.d 0 e 7 X o X , < y 9 < X .   2 y y 9 : . . : 2 0 9 9 O   . X 2 ",
"l.n.&.D r a d K 7.j.Q a y a 7.l.V.n.D a y d Y 7.u.&.d y s d 7.c.s 0 0 9 7 @ % , O y 9 < X . . < 9 p 9 . . . : 2 9 0 < . .   O 9 ",
"l.n.d.D p a K K / j.Q a e a Y 7.n.n.D a p d Y 6.u.u.F y a d 7.*.l y t 7 7 + $ 7 < y 9 < . . . < 0 e 9 X . . : 1 t t 1 : . . , 9 ",
"7.d.v.Q e a K 4.7.u.Q a e a Y d j.l.D a p s K 7.d.u.R 0 a K / / s u y 0 < < 2 9 2 2 9 ,   X X < 0 y 9 X . : 1 4 6 6 4 > . : , 5 ",
"R 6._ a 0 p a d 4.7.Q a q p d d u.d.D e p a d K 6._ a 9 p d R D y i i 9 , 2 y u 5 9 9 + o @ 7 7 a 0 < O X 1 5 h f 6 3 : 2 5 2 u ",
"4.7.7.d 0 p p d d 7.F r q b  .V  . .v b e r D r.6.Q a 9 y s d K s l s 5 , t s l f u 5 < $ 8 0 y d y 7 O < 5 u j l j 5 1 5 t i u ",
"a R Y a 0 0 s i s F b w * = B n c n = c w w n R Y / D 7 0 a d K s 4.s 2 2 p i z f j y < < t t s l s 9 > 5 5 u z z s 0 9 t u s d ",
"b r p 0 r r F t a q % * @ # b r & & + * * * w n F R a q q F a s s 7.D y 9 p s d u d p 7 < 9 t l 4.s 9 2 t t y K 7.K 0 0 p p d Y ",
"v r q 8 m N b t 0 0 $ * # * q w @ $ o o $ 7 r D r p 8 * q q y l j u.Y p 0 p i s 7.K a 0 7 t s 4.q.K p 9 t y s Y Y Y 0 0 a d K 7.",
"w r q 8 8 m q 9 0 7 < % % $ 9 q 0 8 O X X < 9 t 9 9 X % 8 7 t x l u.d q 0 a s s 7.K p e 0 p 4.w.j.! p 0 y s d 4.K D 0 0 i d j.j.",
"9 e w 8 $ $ 7 9 9 7 < . X . 2 0 p 0 : : . : 5 5 2 1 : . X < 5 j x d.Q a e d K 4.k.j.d p p 4.w.V.n.u.a 0 a d r.j.j./ p p d 7.B.n.",
"e 0 q 8 $ 7 7 9 y 0 < X . X 2 0 e 9 : . . : 2 t t 9 > . . < 6 h x d.Q p p D 7.l.k.q.a p y d w.V.B.&.a y a z k.V.l./ y p d 7.C.l.",
"q p 9 8 $ 8 < 9 y 9 < .   . 2 t p 0 . . . : 9 y 0 2 > . X , 6 k x u.R a p d 7.z.k.j.a p p z w.B.V.&.a 0 s K z.C.l./ p y d 7.V.l.",
"0 0 2 , O O > 0 t 9 < X . . 2 0 y 9 : . . : 9 y 0 2 X . . > 5 k g d.Q p 9 s 4.k.B.6.a p y z z.z.V._ y 9 t s k.V.l./ p y d 7.V.n.",
"0 0 < O . . , 9 9 9 < X . . 2 0 0 0 > . . : 9 0 0 < X   . , 4 k g l./ p 1 t z B.B.u.a p y d B.z.n.6.p 2 2 s w.B.M./ y p d 7.n.n.",
"0 q 9 , . . , 0 y 0 < . . . 9 0 y 9 > . . : 9 0 0 2 , . . , 4 f g 6.d y 2 u 4.z.B.q.a p y y 6.n.n.Y y 9 2 s B.V.l.Y y y 9 d z.6.",
"0 0 9 X . . > 9 y 9 < X . . 7 e 0 0 : . . : 2 0 0 9 X . X < 2 6 f K p y 2 y z B.z.d.D p 9 2 d d.&.d 0 9 5 d V.C.B.Q e 0 2 y j.6.",
"0 e 9 , . . < 0 y y < X . . 2 y 0 9 > . . . 9 y 0 9 > . X < 2 f f D y 9 1 i 4.z.k.Q p t 9 2 d l.&.a 0 1 1 s V.z.j.d y 9 2 t n._ ",
"0 0 e < X X 1 p d y 9 > . . 2 0 0 0 1 : . : p d a 9 1 . . < 2 6 f Q y < > y 7.V.k.d 9 < , 1 d 6._ p 2 , 1 s V.w.K y < 2 2 y n._ ",
"0 q p 9 > . 1 a D a 9 < X . 9 0 t 0 9 > . : p d a y 9 . X , 5 6 h D e < X y d B.7.a 9 < 1 1 s 7.Y p 1 : 1 y k.w.d t < 2 2 y d.Y ",
"D p e 9 : : 2 a / K 0 2 < > t d a p 1 , . : p 6.R p 7 , < 2 t u h r 0 < . , t 6.6.s 9 2 < 1 s K d 0 1 . : 1 Y B.7.p 7 2 9 e / d ",
"#.a e 0 X . 1 p 6.Y p 2 2 1 t D d p 2 < . > s l.6.a 0 < 9 9 y j j p 0 < : 1 t q.6.a 9 2 < 1 s 7.D y 1 . : 1 Y n./ 0 7 2 9 0 / D ",
"_ D p 0 X , y K j.7.p 2 2 , t K Y d 2 > : 2 4.j.7.d 9 < 2 9 y j x D 0 < : t l B.6.p 9 < 1 1 d 7.7.p 1 : 1 u B.q.d y < < 2 p d./ ",
"/ R p 0 : , y 7.j./ 0 < 2 , t d Y d 9 > : 2 7.k.7.a 9 < 9 2 y j x R p 2 > y 7.C.l.a 9 < 1 1 d j.6.a 1 1 1 s V.j.K p 2 2 2 y n._ ",
"&.a q 9 : . 1 a q.7.y 2 2 , t K d a 2 , . > s d.6.a 0 9 9 9 y h j d p t 1 p 4.B.l./ a 0 9 1 d d.#.a 0 2 2 s B.B.j.d 0 9 2 t l._ ",
"D a 0 9 . : , a 7.D e 2 1 > t d s p 1 , . : y q./ p 7 , 1 7 9 h h K y y 2 y z B.B.d.d p 0 2 d l.@.d y 9 9 l V.C.z.7.p 0 2 y j.6.",
"0 e y 9 , . 1 d D a 9 , X X 2 0 0 0 2 > . : s D d 0 2 . X < 5 f k d.D p 2 t z B.B.u.a p y p 6.z.n.R y 9 2 s B.B.l.Y 0 p y d l.j.",
"0 0 e < : . 1 p d 0 9 , . . 2 0 t 0 < : . : y d a 9 < . . , 2 k k B.7.y 1 t z B.V.q.a p y z z.B.n.r.p 2 2 s B.B.n.Y y p s 7.V.n.",
"0 e 9 < . . , 0 a t < X X . 2 p 0 0 > . . . 9 p y 9 , . X < 5 k g n.Q a t a 4.B.z.&.a y y z k.V.B.&.p t t z k.B.n./ p p a 7.V.n.",
"0 q 7 X   X > 9 y 9 , X . . 2 0 0 9 X . . . 2 9 0 2 X . . < 5 k g d.Q p y s 7.z.B.6.d p y z w.z.B.&.p 9 y d k.C.l.Y y p s r.V.z.",
"0 e 9 X . : 1 9 y 9 < . . . 2 0 y 9 > . . : 2 y 0 < : . : , 5 k g 6.R a p d 7.z.k.j.d p y K k.B.n.&.a y p 4.n.C.n.Y p p d 7.V.l.",
"0 0 2 , . . > 9 y 0 < X . . 2 9 y 2 , . . : 2 y 0 9 > . . > 6 h g d.R a p D 7.j.k.6.a y p d w.B.B.&.a 0 s K j.B.l./ 0 p s 7.V.n.",
"0 q 2 , O X , 9 t t < X . . 9 9 p 9 : . . : 2 y 0 2 > . X , 6 g g v.Q a p d d K j.u.D p p 4.w.V.n.*.a y d s 7.j.u.Y y p s 7.C.n.",
"0 p 7 7 $ % , 9 y 9 < . . . 2 9 y 9 . . . . 9 y 0 2 : . : , 6 h h l.Q a p D K K j.u.D p a d q.z.n.u.a e s d / q.u./ p p d / l.n.",
"0 p 0 % 7 8 7 9 y 0 , X   . 9 0 e 0 . . . : 2 y 9 2 > : . < 6 6 h n._ r e K K 7.q.u.D a p K K r.l.u.a p a d 4.u.j._ a p K / _ l.",
"0 p q 8 + 7 7 9 0 9 < . . . 2 t y 0 : : : : 5 5 t 1 : . X < 5 h u n._ a e D d 7.6._ d r e d K 4.l._ p p s d K j.l._ p p D Y / v.",
"q b w 8 % m q 9 y 0 < @ $ + 9 0 0 8 : . . 1 9 t y 2 : $ 8 7 6 h j d.&.a p a d 7.j.u.a q p d D K 6.R 0 e p D 7.j.u._ p p d D &.v.",
"n c q q M A n 9 y e 7 q * q q w % $ O + + 8 r b D q 8 * = q y u j j.#.a e d D 7.6._ b q q b D F Q r 8 q a D / u.u.Q a p d K u.v."
};
