/* XPM */
static char *e440b3e42e374d3dcd2e73315a1def5115TxZJaRP6KQJrfr[] = {
/* columns rows colors chars-per-pixel */
"64 64 18 1 ",
"  c None",
". c black",
"X c #26774B",
"o c #474648",
"O c #4C5471",
"+ c #8B0229",
"@ c #D2061E",
"# c #4ECC2E",
"$ c #FFDD24",
"% c #C98A53",
"& c #022795",
"* c #1A45F6",
"= c #1774FF",
"- c #839BA8",
"; c #929BB7",
": c #FDD48E",
"> c #EDEFEF",
", c #F0F2F2",
/* pixels */
"                                                                ",
"                                                                ",
"                                                                ",
"                                                                ",
"                                                                ",
"                                                                ",
"                                                                ",
"                                                                ",
"                                                                ",
"                                                                ",
"                                                                ",
"                                                                ",
"                        ..........                              ",
"                      ..********=*..                            ",
"                        .&*******=*&... ..                      ",
"                         .&&******=*&**.&.                      ",
"                       ...&&&&*****&*:&.&.                      ",
"                     ..*========**&*::&*&.                      ",
"                    .*=======******%::&*.                       ",
"                   .*****************=***.                      ",
"                  .****************&&*=**.                      ",
"                 .****************&,,&*=*.                      ",
"                ......&&&&&&&****&,,,,&=*.                      ",
"                    .&*&&&&******&,,,,,&*.                      ",
"                   .&*&&&*==*****&,,,,#&&.                      ",
"                   .*&..*=********-,,,o,..                      ",
"                   ....*=*********&,,,X,.                       ",
"                   . .*=**********&-,,::oo.                     ",
"                     .******&&&&:::::::%.                       ",
"                     .****&&&&&&%:::::%.                        ",
"                     .**...&&..&&%:::..                         ",
"                     .*.  .&.:%&&&...                           ",
"                     ..    .:%&&***%%.                          ",
"                     .    .:...&**:::.                          ",
"                          ..>>;...:::...                        ",
"                           .>;>>>>.::.>>.                       ",
"                           .>;>>>;;..>;;>.                      ",
"                            ..>>;>;..>>;>.                      ",
"                             .;>>;>.*.OO;.                      ",
"                              .;;;..&*.;.                       ",
"                               ...  .*..                        ",
"                               .*.   .&.                        ",
"                              .&*.   .&.                        ",
"                              .&.    .&.                        ",
"                           ...&.    ..&.                        ",
"                          .>.&.    .;&&..                       ",
"                         .;>>>.    .;;;O.                       ",
"                         .;;;;.    .OOOO...                     ",
"                         .+>>>.    ..++;;;;.                    ",
"                        .+>@@@+.    .++;;+++.                   ",
"                        .$@@@@@.    .++;;++++.                  ",
"                        .$@@@@@.    .;;;;;;;;.                  ",
"                         .     .                                ",
"                                                                ",
"                                                                ",
"                                                                ",
"                                                                ",
"                                                                ",
"                                                                ",
"                                                                ",
"                                                                ",
"                                                                ",
"                                                                ",
"                                                                "
};
