/* XPM */
static char *_7feb0b5ff9c4ec2be0a94d6b5c334933vq9woYxuyh5yhBe[] = {
/* columns rows colors chars-per-pixel */
"64 64 10 1 ",
"  c #8C4100",
". c #8D4200",
"X c #8E4300",
"o c #954900",
"O c #964B00",
"+ c #994E00",
"@ c #A85D00",
"# c #CF8400",
"$ c #D68A00",
"% c #D78B00",
/* pixels */
"$$$$$$$$$$$$$$$$$$$$$$$$$$$$$$$%+X                              ",
"$$$$$$$$$$$$$$$$$$$$$$$$$$$$$$$%+X                              ",
"$$$$$$$$$$$$$$$$$$$$$$$$$$$$$$$%+                               ",
"$$$$$$$$$$$$$$$$$$$$$$$$$$$$$$$%+                               ",
"$$$$$$$$$$$$$$$$$$$$$$$$$$$$$$$%+                               ",
"$$$$$$$$$$$$$$$$$$$$$$$$$$$$$$$%+                               ",
"$$$$$$$$$$$$$$$$$$$$$$$$$$$$$$$%+                               ",
"$$$$$$$$$$$$$$$$$$$$$$$$$$$$$$$%+                               ",
"$$$$$$$$$$$$$$$$$$$$$$$$$$$$$$$%+                               ",
"$$$$$$$$$$$$$$$$$$$$$$$$$$$$$$$%+                               ",
"$$$$$$$$$$$$$$$$$$$$$$$$$$$$$$$%+                               ",
"$$$$$$$$$$$$$$$$$$$$$$$$$$$$$$$%+                               ",
"$$$$$$$$$$$$$$$$$$$$$$$$$$$$$$$%+                               ",
"$$$$$$$$$$$$$$$$$$$$$$$$$$$$$$$%+                               ",
"$$$$$$$$$$$$$$$$$$$$$$$$$$$$$$$%+                               ",
"$$$$$$$$$$$$$$$$$$$$$$$$$$$$$$$%+                               ",
"$$$$$$$$$$$$$$$$$$$$$$$$$$$$$$$%+                               ",
"$$$$$$$$$$$$$$$$$$$$$$$$$$$$$$$%+                               ",
"$$$$$$$$$$$$$$$$$$$$$$$$$$$$$$$%+                               ",
"$$$$$$$$$$$$$$$$$$$$$$$$$$$$$$$%+                               ",
"$$$$$$$$$$$$$$$$$$$$$$$$$$$$$$$%+                               ",
"$$$$$$$$$$$$$$$$$$$$$$$$$$$$$$$%+                               ",
"$$$$$$$$$$$$$$$$$$$$$$$$$$$$$$$%+                               ",
"$$$$$$$$$$$$$$$$$$$$$$$$$$$$$$$%+                               ",
"$$$$$$$$$$$$$$$$$$$$$$$$$$$$$$$%+                               ",
"$$$$$$$$$$$$$$$$$$$$$$$$$$$$$$$%+                               ",
"$$$$$$$$$$$$$$$$$$$$$$$$$$$$$$$%+                               ",
"$$$$$$$$$$$$$$$$$$$$$$$$$$$$$$$%+                               ",
"$$$$$$$$$$$$$$$$$$$$$$$$$$$$$$$%+                               ",
"$$$$$$$$$$$$$$$$$$$$$$$$$$$$$$$%+                               ",
"$$$$$$$$$$$$$$$$$$$$$$$$$$$$$$$$+                               ",
"$$$$$$$$$$$$$$$$$$$$$$$$$$$$$$$$+                               ",
"@@@@@@@@@@@@@@@@@@@@@@@@@@@@@@@@XXXXXXXXXXXXXXXXXXXXXXXXXXXXXXXX",
"                                o###############################",
"                                o$$$$$$$$$$$$$$$$$$$$$$$$$$$$$$$",
"                                o$$$$$$$$$$$$$$$$$$$$$$$$$$$$$$$",
"                                o$$$$$$$$$$$$$$$$$$$$$$$$$$$$$$$",
"                                O$$$$$$$$$$$$$$$$$$$$$$$$$$$$$$$",
"                                O$$$$$$$$$$$$$$$$$$$$$$$$$$$$$$$",
"                                O$$$$$$$$$$$$$$$$$$$$$$$$$$$$$$$",
"                                O$$$$$$$$$$$$$$$$$$$$$$$$$$$$$$$",
"                                O$$$$$$$$$$$$$$$$$$$$$$$$$$$$$$$",
"                                O$$$$$$$$$$$$$$$$$$$$$$$$$$$$$$$",
"                                O$$$$$$$$$$$$$$$$$$$$$$$$$$$$$$$",
"                                O$$$$$$$$$$$$$$$$$$$$$$$$$$$$$$$",
"                                O$$$$$$$$$$$$$$$$$$$$$$$$$$$$$$$",
"                                O$$$$$$$$$$$$$$$$$$$$$$$$$$$$$$$",
"                                O$$$$$$$$$$$$$$$$$$$$$$$$$$$$$$$",
"                                O$$$$$$$$$$$$$$$$$$$$$$$$$$$$$$$",
"                                O$$$$$$$$$$$$$$$$$$$$$$$$$$$$$$$",
"                                O$$$$$$$$$$$$$$$$$$$$$$$$$$$$$$$",
"                                O$$$$$$$$$$$$$$$$$$$$$$$$$$$$$$$",
"                                O$$$$$$$$$$$$$$$$$$$$$$$$$$$$$$$",
"                                O$$$$$$$$$$$$$$$$$$$$$$$$$$$$$$$",
"                                O$$$$$$$$$$$$$$$$$$$$$$$$$$$$$$$",
"                                O$$$$$$$$$$$$$$$$$$$$$$$$$$$$$$$",
"                                O$$$$$$$$$$$$$$$$$$$$$$$$$$$$$$$",
"                                O$$$$$$$$$$$$$$$$$$$$$$$$$$$$$$$",
"                                O$$$$$$$$$$$$$$$$$$$$$$$$$$$$$$$",
"                                O$$$$$$$$$$$$$$$$$$$$$$$$$$$$$$$",
"                                O$$$$$$$$$$$$$$$$$$$$$$$$$$$$$$$",
"                                O$$$$$$$$$$$$$$$$$$$$$$$$$$$$$$$",
"                               XO$$$$$$$$$$$$$$$$$$$$$$$$$$$$$$$",
"                               XO$$$$$$$$$$$$$$$$$$$$$$$$$$$$$$$"
};
