/* XPM */
static char *result[] = {
/* columns rows colors chars-per-pixel */
"64 64 252 2 ",
"   c #422D0E",
".  c #4B3411",
"X  c #4A3515",
"o  c #553B14",
"O  c #563D14",
"+  c #573E15",
"@  c #5C4113",
"#  c #5D451C",
"$  c #60400E",
"%  c #6D460D",
"&  c #754B0D",
"*  c #7A4F0E",
"=  c #7B500C",
"-  c #7D510E",
";  c #7C530F",
":  c #7F530F",
">  c #664410",
",  c #614215",
"<  c #694918",
"1  c #6E4D1B",
"2  c #714A10",
"3  c #724C15",
"4  c #795011",
"5  c #7C5310",
"6  c #7D571B",
"7  c #5E4822",
"8  c #694D21",
"9  c #675123",
"0  c #6B5020",
"q  c #6D5125",
"w  c #645028",
"e  c #6A552B",
"r  c #69552C",
"t  c #7A5621",
"y  c #725A2F",
"u  c #715E2F",
"i  c #725E2F",
"p  c #735D33",
"a  c #755D30",
"s  c #785F31",
"d  c #776134",
"f  c #7A6632",
"g  c #7D673A",
"h  c #7E6A3C",
"j  c #835812",
"k  c #845810",
"l  c #845811",
"z  c #855B13",
"x  c #875F15",
"c  c #875E1A",
"v  c #8C6116",
"b  c #84601C",
"n  c #83641F",
"m  c #8F661B",
"M  c #986814",
"N  c #92671A",
"B  c #94671E",
"V  c #996D1B",
"C  c #97731E",
"Z  c #9B711F",
"A  c #9D741F",
"S  c #A36C17",
"D  c #A96B18",
"F  c #A4721B",
"G  c #AB711A",
"H  c #AA761E",
"J  c #AB781C",
"K  c #BA771F",
"L  c #845E23",
"P  c #8D6421",
"I  c #8E6C20",
"U  c #846D2F",
"Y  c #9F6122",
"T  c #996525",
"R  c #9A6E26",
"E  c #90692D",
"W  c #94782A",
"Q  c #826530",
"!  c #806536",
"~  c #896C35",
"^  c #966E33",
"/  c #946F35",
"(  c #8D7639",
")  c #937137",
"_  c #9F7132",
"`  c #997934",
"'  c #94723A",
"]  c #AD6C24",
"[  c #AF6C25",
"{  c #A77521",
"}  c #A67820",
"|  c #A57D23",
" . c #AF7E27",
".. c #A2762E",
"X. c #A6792B",
"o. c #A37A2C",
"O. c #B97120",
"+. c #B67C22",
"@. c #B07228",
"#. c #B87429",
"$. c #B47C2D",
"%. c #BD7A2A",
"&. c #BB782C",
"*. c #A77D35",
"=. c #C37822",
"-. c #C37B25",
";. c #C77825",
":. c #8B7442",
">. c #977E4B",
",. c #967E4C",
"<. c #987F4C",
"1. c #A27C40",
"2. c #AD8527",
"3. c #BF8225",
"4. c #B1872B",
"5. c #B38F2F",
"6. c #BB8E2E",
"7. c #A58332",
"8. c #A78B38",
"9. c #B1843C",
"0. c #B28F3C",
"q. c #C08024",
"w. c #C38029",
"e. c #C19735",
"r. c #C89C38",
"t. c #98814F",
"y. c #998352",
"u. c #A98345",
"i. c #A6884D",
"p. c #A5884E",
"a. c #AD8F4B",
"s. c #B98542",
"d. c #B68946",
"f. c #B5894B",
"g. c #B28E48",
"h. c #B08D4A",
"j. c #BB8F4C",
"k. c #AF9644",
"l. c #B7924F",
"z. c #B2994C",
"x. c #A18751",
"c. c #A08754",
"v. c #A38A54",
"b. c #A48C56",
"n. c #AD8E51",
"m. c #A88E58",
"M. c #A69050",
"N. c #A9935F",
"B. c #AD955F",
"V. c #AF985D",
"C. c #B59654",
"Z. c #B89751",
"A. c #BC9654",
"S. c #B49B50",
"D. c #B2965C",
"F. c #B39A5E",
"G. c #BB9858",
"H. c #BCA355",
"J. c #BCA454",
"K. c #AB9765",
"L. c #AF9962",
"P. c #B39960",
"I. c #B79F63",
"U. c #BC9F62",
"Y. c #B49E68",
"T. c #B8A062",
"R. c #BFA665",
"E. c #BDA469",
"W. c #BCA76F",
"Q. c #BFAA74",
"!. c #BFAD7A",
"~. c #C09C40",
"^. c #C8A244",
"/. c #CBA945",
"(. c #CFA844",
"). c #C6A74D",
"_. c #DFBE46",
"`. c #C1A95B",
"'. c #C2AA5B",
"]. c #D2AF56",
"[. c #D1B152",
"{. c #DBB250",
"}. c #DCB453",
"|. c #D0B45A",
" X c #E0BE47",
".X c #C6AA62",
"XX c #C4A867",
"oX c #C7AD66",
"OX c #C8A862",
"+X c #C6AB6A",
"@X c #CEB164",
"#X c #CEB065",
"$X c #CCB167",
"%X c #D1B460",
"&X c #D3B764",
"*X c #D3B665",
"=X c #D3B766",
"-X c #D9B963",
";X c #DFBC62",
":X c #D5B66A",
">X c #D5B66D",
",X c #D5BC6E",
"<X c #DABA68",
"1X c #DABF6B",
"2X c #D8B96C",
"3X c #C3AC71",
"4X c #C1AC74",
"5X c #C7B177",
"6X c #CAB071",
"7X c #CDB878",
"8X c #CEBA7E",
"9X c #D3B872",
"0X c #D6BD73",
"qX c #DABD72",
"wX c #D2BC7B",
"eX c #EECE46",
"rX c #F7DE4E",
"tX c #F8DD4E",
"yX c #ECCD58",
"uX c #F2D455",
"iX c #F3D85A",
"pX c #FAE35F",
"aX c #DAC16E",
"sX c #DDC473",
"dX c #DEC574",
"fX c #DFC674",
"gX c #E3C664",
"hX c #E1C26A",
"jX c #E3C970",
"kX c #E4C970",
"lX c #E6CE79",
"zX c #EAD071",
"xX c #E8D27D",
"cX c #FFEA64",
"vX c #FAE373",
"bX c #FEEB71",
"nX c #CBB781",
"mX c #CFC190",
"MX c #D2C696",
"NX c #DBC990",
"BX c #D7C99B",
"VX c #F0DC86",
"CX c #EDDC96",
"ZX c #EFDE9B",
"AX c #FBE987",
"SX c #FFF085",
"DX c #FEF08D",
"FX c #EBE1AC",
"GX c #F4E7A3",
"HX c #FBF0A9",
"JX c #EFE4B3",
"KX c None",
/* pixels */
"KXKXKXKXKXKXKXKXKXKXKXKXKXKXKXKXKXKXKXKXKXKXKXKXKXKXKXKXKXKXKXKXKXKXKXKXKXKXKXKXKXKXKXKXKXKXKXKXKXKXKXKXKXKXKXKXKXKXKXKXKXKXKXKX",
"KXKXKXKXKXKXKXKXKXKXKXKXKXKXKXKXKXKXKXKXKXKXKXKXKXKXKXKXKXKXKXKXKXKXKXKXKXKXKXKXKXKXKXKXKXKXKXKXKXKXKXKXKXKXKXKXKXKXKXKXKXKXKXKX",
"KXKXKXKXKXKXKXKXKXKXKXKXKXKXKXKXKXKXKXKXKXKXKXKXKXKXKXKXKXKXKXKXKXKXKXKXKXKXKXKXKXKXKXKXKXKXKXKXKXKXKXKXKXKXKXKXKXKXKXKXKXKXKXKX",
"KXKXKXKXKXKXKXKXKXKXKXKXKXKXKXKXKXKXKXKXKXKXKXKXKXKXKXKXKXKXKXKXKXKXKXKXKXKXKXKXKXKXKXKXKXKXKXKXKXKXKXKXKXKXKXKXKXKXKXKXKXKXKXKX",
"KXKXKXKXKXKXKXKXKXKXKXKXKXKXKXKXKXKXKXKXKXKXKXKXKXKXKXKXKXKXKXKXKXKXKXKXKXKXKXKXKXKXKXKXKXKXKXKXKXKXKXKXKXKXKXKXKXKXKXKXKXKXKXKX",
"KXKXKXKXKXKXKXKXKXKXKXKXKXKXKXKXKXKXKXKXKXKXKXKXKXKXKXKXKXKXKXKXKXKXKXKXKXKXKXKXKXKXKXKXKXKXKXKXKXKXKXKXKXKXKXKXKXKXKXKXKXKXKXKX",
"KXKXKXKXKXKXKXKXKXKXKXKXKXKXKXKXKXKXKXKXKXKXKXKXKXKXKXKXKXKXKXKXKXKXKXKXKXKXKXKXKXKXKXKXKXKXKXKXKXKXKXKXKXKXKXKXKXKXKXKXKXKXKXKX",
"KXKXKXKXKXKXKXKXKXKXKXKXKXKXKXKXKXKXKXKXKXKXKXKXKXKXKXKXKXKXKXKXKXKXKXKXKXKXKXKXKXKXKXKXKXKXKXKXKXKXKXKXKXKXKXKXKXKXKXKXKXKXKXKX",
"KXKXKXKXKXKXKXKXKXKXKXKXKXKXKXKXKXKXKXKXKXKXKXKXKXKXKXKXKXKXKXKXKXKXKXKXKXKXKXKXKXKXKXKXKXKXKXKXKXKXKXKXKXKXKXKXKXKXKXKXKXKXKXKX",
"KXKXKXKXKXKXKXKXKXKXKXKXKXKXKXKXKXKXKXKXKXKXKXKXKXKXKXKXKXKXKXKXKXKXKXKXKXKXKXKXKXKXKXKXKXKXKXKXKXKXKXKXKXKXKXKXKXKXKXKXKXKXKXKX",
"KXKXKXKXKXKXKXKXKXKXKXKXKXKXKXKXKXKXKXKXKXKXKXKXKXKXKXKXKXKXKXKXKXKXKXKXKXKXKXKXKXKXKXKXKXKXKXKXKXKXKXKXKXKXKXKXKXKXKXKXKXKXKXKX",
"KXKXKXKXKXKXKXKXKXKXKXKXKXKXKXKXKXKXKXKXKXKXKXKXKXKXKXKXKXKXKXKXKXKXKXKXKXKXKXKXKXKXKXKXKXKXKXKXKXKXKXKXKXKXKXKXKXKXKXKXKXKXKXKX",
"KXKXKXKXKXKXKXKXKXKXKXKXKXKXKXKXKXKXKXKXKXKXKXKXKXKXKXKXKXKXKXKXKXKXKXKXKXKXKXKXKXKXKXKXKXKXKXKXKXKXKXKXKXKXKXKXKXKXKXKXKXKXKXKX",
"KXKXKXKXKXKXKXKXKXKXKXKXKXKXKXKXKXKXKXKXKXKXKXKXKXKXKXKXKXKXKXKXKXKXKXKXKXKXKXKXKXKXKXKXKXKXKXKXKXKXKXKXKXKXKXKXKXKXKXKXKXKXKXKX",
"KXKXKXKXKXKXKXKXKXKXKXKXKXKXKXKXKXKXKXKXKXKXKXKXKXKXKXKXKXKXKXKXKXKXKXKXKXKXKXKXKXKXKXKXKXKXKXKXKXKXKXKXKXKXKXKXKXKXKXKXKXKXKXKX",
"KXKXKXKXKXKXKXKXKXKXKXKXKXKXKXKXKXKXKXKXKXKXKXKXKXKXKXKXKXKXKXKXKXKXKXKXKXKXKXKXKXKXKXKXKXKXKXKXKXKXKXKXKXKXKXKXKXKXKXKXKXKXKXKX",
"KXKXKXKXKXKXKXKXKXKXKXKXKXKXKXKXKXKXKXKXKXKXKXKXKXKXKXKXKXKXKXKXKXKXKXKXKXKXKXKXKXKXKXKXKXKXKXKXKXKXKXKXKXKXKXKXKXKXKXKXKXKXKXKX",
"KXKXKXKXKXKXKXKXKXKXKXKXKXKXKXKXKXKXKXKXKXKXKXKXKXKXKXKXKXKXKXKXKXKXKXKXKXKXKXKXKXKXKXKXKXKXKXKXKXKXKXKXKXKXKXKXKXKXKXKXKXKXKXKX",
"KXKXKXKXKXKXKXKXKXKXKXKXKXKXKXKXKXKXKXKXKXKXKXKXKXKXKXKXKXKXKXKXKXKXKXKXKXKXKXKXKXKXKXKXKXKXKXKXKXKXKXKXKXKXKXKXKXKXKXKXKXKXKXKX",
"KXKXKXKXKXKXKXKXKXKXKXKXKXKXKXKXKXKXKXKXKXKXKXKXKXKXKXKXKXKXKXKXKXKXKXKXKXKXKXKXKXKXKXKXKXKXKXKXKXKXKXKXKXKXKXKXKXKXKXKXKXKXKXKX",
"KXKXKXKXKXKXKXKXKXKXKXKXKXKXKXKXKXKXKXKXKXKXKXKXKXKXKXKXKXKXKXKXKXKXKXKXKXKXKXKXKXKXKXKXKXKXKXKXKXKXKXKXKXKXKXKXKXKXKXKXKXKXKXKX",
"KXKXKXKXKXKXKXKXKXKXKXKXKXKXKXKXKXKXKXKXKXKXKXKXKXKXKXKXKXKXKXKXKXKXKXKXKXKXKXKXKXKXKXKXKXKXKXKXKXKXKXKXKXKXKXKXKXKXKXKXKXKXKXKX",
"KXKXKXKXKXKXKXKXKXKXKXKXKXKXKXKXKXKXKXKXKXKXKXKXKXKXKXKXKXKXKXKXKXKXKXKXKXKXKXKXKXKXKXKXKXKXKXKXKXKXKXKXKXKXKXKXKXKXKXKXKXKXKXKX",
"KXKXKXKXKXKXKXKXKXKXKXKXKXKXKXKXKXKXKXKXKXKXKXKXKXKXKXKXKXKXKXKXKXKXKXKXKXKXKXKXKXKXKXKXKXKXKXKXKXKXKXKXKXKXKXKXKXKXKXKXKXKXKXKX",
"KXKXKXKXKXKXKXKXKXKXKXKXKXKXKXKXKXKXKXKXKXKXKXKXKXKXKXKXKXKXKXKXKXKXKXKXKXKXKXKXKXKXKXKXKXKXKXKXKXKXKXKXKXKXKXKXKXKXKXKXKXKXKXKX",
"KXKXKXKXKXKXKXKXKXKXKXKXKXKXKXKXKXKXKXKXKXKXKXKXKXKXKXKXKXKXKXKXKXKXKXKXKXKXKXKXKXKXKXKXKXKXKXKXKXKXKXKXKXKXKXKXKXKXKXKXKXKXKXKX",
"KXKXKXKXKXKXKXKXKXKXKXKXKXKXKXKXKXKXKXKXKXKXKXKXKXKXKXKXKXKXKXKXKXKXKXKXKXKXKXKXKXKXKXKXKXKXKXKXKXKXKXKXKXKXKXKXKXKXKXKXKXKXKXKX",
"KXKXKXKXKXKXKXKXKXKXKXKXKXKXKXKXKXKXKXKXKXKXKXKXKXKXKXKXKXKXKXKXKXKXKXKXKXKXKXKXKXKXKXKXKXKXKXKXKXKXKXKXKXKXKXKXKXKXKXKXKXKXKXKX",
"KXKXKXKXKXKXKXKXKXKXKXKXKXKXKXKXKXKXKXKXKXKXKXKXKXKXKXKXKXKXKXKXKXKXKXKXKXKXKXKXKXKXKXKXKXKXKXKXKXKXKXKXKXKXKXKXKXKXKXKXKXKXKXKX",
"KXKXKXKXKXKXKXKXKXKXKXKXKXKXKXKXKXKXKXKXKXKXKXKXKXKXKXKXKXKXKXKXKXKXKXKXKXKXKXKXKXKXKXKXKXKXKXKXKXKXKXKXKXKXKXKXKXKXKXKXKXKXKXKX",
"KXKXKXKXKXKXKXKXKXKXKXKXKXKXKXKXKXKXKXKXKXKXKXKXKXKXKXKXKXKXKXKXKXKXKXKXKXKXKXKXKXKXKXKXKXKXKXKXKXKXKXKXKXKXKXKXKXKXKXKXKXKXKXKX",
"KXKXKXKXKXKXKXKXKXKXKXKXKXKXKXKXKXKXKXKXKXKXKXKXKXKXKXKXKXKXKXKXKXKXKXKXKXKXKXKXKXKXKXKXKXKXKXKXKXKXKXKXKXKXKXKXKXKXKXKXKXKXKXKX",
"KXKXKXKXKXKXKXKXKXKXKXKXKXKXKXKXKXKXKXKXKXKXKXKXKXKXKXKXKXKXKXKXKXKXKXKXKXKXKXKXKXKXKXKXKXKXKXKXKXKXKXKXKXKXKXKXKXKXKXKXKXKXKXKX",
"KXKXKXKXKXKXKXKXKXKXKXKXKXKXKXKXKXKXKXKXKXKXKXKXKXKXKXKXKXKXKXKXKXKXKXKXKXKXKXKXKXKXKXKXKXKXKXKXKXKXKXKXKXKXKXKXKXKXKXKXKXKXKXKX",
"KXKXKXKXKXKXKXKXKXKXKXKXKXKXKXKXKXKXKXKXKXKXKXKXKXKXKXKXKXKXKXKXKXKXKXKXKXKXKXKXKXKXKXKXKXKXKXKXKXKXKXKXKXKXKXKXKXKXKXKXKXKXKXKX",
"KXKXKXKXKXKXKXKXKXKXKXKXKXKXKXKXKXKXKXKXKXKXKXKXKXKXKXKXKXKXKXKXKXKXKXKXKXKXKXKXKXKXKXKXKXKXKXKXKXKXKXKXKXKXKXKXKXKXKXKXKXKXKXKX",
"KXKXKXKXKXKXKXKXKXKXKXKXKXKXKXKXKXKXKXKXKXKXKXKXKXKXKXKXKXKXKXKXKXKXKXKXKXKXKXKXKXKXKXKXKXKXKXKXKXKXKXKXKXKXKXKXKXKXKXKXKXKXKXKX",
"KXKXKXKXKXKXKXKXKXKXKXKXKXKXKXKXKXKXKXKXKXKXKXKXKXKXKXKXKXKXKXKXKXKXKXKXKXKXKXKXKXKXKXKXKXKXKXKXKXKXKXKXKXKXKXKXKXKXKXKXKXKXKXKX",
"KXKXKXKXKXKXKXKXKXKXKXKXKXKXKXKXKXKXKXKXKXKXKXKXKXKXKXKXKX9 w e r r i KXKXKXKXKXKXKXKXKXKXKXKXKXKXKXKXKXKXKXKXKXKXKXKXKXKXKXKXKX",
"KXKXKXKXKXKXKXKXKXKXKXKXKXKXKXKXKXKXKXKXKXKXKXKXKXKXb n W k.J.'.`.H.z.M.K.KXKXKXKXKXKXKXKXKXKXKXKXKXKXKXKXKXKXKXKXKXKXKXKXKXKXKX",
"KXKXKXKXKXKXKXKXKXKXKXKXKXKXKXKXKXKXKXKXKXKXKXKXKXA 5.[.1X.XZ.g.h.C.oXsXfXwX).KXKXKXKXKXKXKXKXKXKXKXKXKXKXKXKXKXKXKXKXKXKXKXKXKX",
"KXKXKXKXKXKXKXKXKXKXKXKXKXKXKXKXKXKXKXKXKXKXKXKX4.(.hXOX9. .} V N m P ) R.jXgX_.KXKXKXKXKXKXKXKXKXKXKXKXKXKXKXKXKXKXKXKXKXKXKXKX",
"KXKXKXKXKXKXKXKXKXKXKXKXKXKXKXKXKXKXKXKXKXKXKX6.}.2Xj.+.J M KXKXKXKX= ; 6 x.dXyXeXKXKXKXKXKXKXKXKXKXKXKXKXKXKXKXKXKXKXKXKXKXKXKX",
"KXKXKXKXKXKXKXKXKXKXKXKXKXKXKXKXKXKXKXKXKXKX2.{.>Xs.q.S KXKXKXKXKXKXKXKX& 3 <.lXiXrXKXKXKXKXKXKXKXKXKXKXKXKXKXKXKXKXKXKXKXKXKXKX",
"KXKXKXKXKXKXKXKXKXKXKXKXKXKXKXKXKXKXKXKXKXC ^.qXf.-.D KXKXKXKXKXKXKXKXKXKX% < N.VXpXKXKXKXKXKXKXKXKXKXKXKXKXKXKXKXKXKXKXKXKXKXKX",
"KXKXKXKXKXKXKXKXKXKXKXKXKXKXKXKXKXKXKXKXKX7.:XU.@.O.KXKXKXKXKXKXKXKXKXKXKXKX$ 8 8XAXcXKXKXKXKXKXKXKXKXKXKXKXKXKXKXKXKXKXKXKXKXKX",
"KXKXKXKXKXKXKXKXKXKXKXKXKXKXKXKXKXKXKXKXKXa.6X1.] KXKXKXKXKXKXKXKXKXKXKXKXKXKXO y.ZXDXKXKXKXKXKXKXKXKXKXKXKXKXKXKXKXKXKXKXKXKXKX",
"KXKXKXKXKXKXKXKXKXKXKXKXKXKXKXKXKXKXKXKXQ D.E.^ Y KXKXKXKXKXKXKXKXKXKXKXKXKXKX. d NXHXKXKXKXKXKXKXKXKXKXKXKXKXKXKXKXKXKXKXKXKXKX",
"KXKXKXKXKXKXKXKXKXKXKXKXKXKXKXKXKXKXKXKX! m.F.' KXKXKXKXKXKXKXKXKXKXKXKXKXKXKX  p nXJXKXKXKXKXKXKXKXKXKXKXKXKXKXKXKXKXKXKXKXKXKX",
"KXKXKXKXKXKXKXKXKXKXKXKXKXKXKXKXKXKXKXKXy >.V.b.KXKXKXKXKXKXKXKXKXKXKXKXKXKXKXKXg 4XBXMXKXKXKXKXKXKXKXKXKXKXKXKXKXKXKXKXKXKXKXKX",
"KXKXKXKXKXKXKXKXKXKXKXKXKXKXKXKXKXKXKXKX7 :.W.mXKXKXKXKXKXKXKXKXKXKXKXKXKXKXKXs c.5X!.KXKXKXKXKXKXKXKXKXKXKXKXKXKXKXKXKXKXKXKXKX",
"KXKXKXKXKXKXKXKXKXKXKXKXKXKXKXKXKXKXKXKXX a Q.FXKXKXKXKXKXKXKXKXKXKXKXKXKXKXKX~ P.3Xv.KXKXKXKXKXKXKXKXKXKXKXKXKXKXKXKXKXKXKXKXKX",
"KXKXKXKXKXKXKXKXKXKXKXKXKXKXKXKXKXKXKXKX  # Y.GXSXKXKXKXKXKXKXKXKXKXKXKXKXKXKX` +XI./ KXKXKXKXKXKXKXKXKXKXKXKXKXKXKXKXKXKXKXKXKX",
"KXKXKXKXKXKXKXKXKXKXKXKXKXKXKXKXKXKXKXKXKXo t.CXbXKXKXKXKXKXKXKXKXKXKXKXKXKXKX0.9Xi.T KXKXKXKXKXKXKXKXKXKXKXKXKXKXKXKXKXKXKXKXKX",
"KXKXKXKXKXKXKXKXKXKXKXKXKXKXKXKXKXKXKXKXKX+ q 7XvXtXKXKXKXKXKXKXKXKXKXKXKXKX| ].XX_ [ KXKXKXKXKXKXKXKXKXKXKXKXKXKXKXKXKXKXKXKXKX",
"KXKXKXKXKXKXKXKXKXKXKXKXKXKXKXKXKXKXKXKXKX@ , ,.xXuXKXKXKXKXKXKXKXKXKXKXKXo.r.<Xu.#.KXKXKXKXKXKXKXKXKXKXKXKXKXKXKXKXKXKXKXKXKXKX",
"KXKXKXKXKXKXKXKXKXKXKXKXKXKXKXKXKXKXKXKXKXKX> 1 B.zX X/.KXKXKXKXKXKXKXKXZ e.;XG.&.;.KXKXKXKXKXKXKXKXKXKXKXKXKXKXKXKXKXKXKXKXKXKX",
"KXKXKXKXKXKXKXKXKXKXKXKXKXKXKXKXKXKXKXKXKXKXKX2 t T.kX,XL.h KXKXKXKX0 I ~.-XA.%.=.KXKXKXKXKXKXKXKXKXKXKXKXKXKXKXKXKXKXKXKXKXKXKX",
"KXKXKXKXKXKXKXKXKXKXKXKXKXKXKXKXKXKXKXKXKXKXKXKX4 L p.0XaXS.( f u U 8.|.@Xd.w.K KXKXKXKXKXKXKXKXKXKXKXKXKXKXKXKXKXKXKXKXKXKXKXKX",
"KXKXKXKXKXKXKXKXKXKXKXKXKXKXKXKXKXKXKXKXKXKXKXKXKX5 c E n.$X=X&X%X*X#Xl.$.3.G KXKXKXKXKXKXKXKXKXKXKXKXKXKXKXKXKXKXKXKXKXKXKXKXKX",
"KXKXKXKXKXKXKXKXKXKXKXKXKXKXKXKXKXKXKXKXKXKXKXKXKXKX* j v B R ..*.X.{ H F KXKXKXKXKXKXKXKXKXKXKXKXKXKXKXKXKXKXKXKXKXKXKXKXKXKXKX",
"KXKXKXKXKXKXKXKXKXKXKXKXKXKXKXKXKXKXKXKXKXKXKXKXKXKXKXKXKX- : l z x k KXKXKXKXKXKXKXKXKXKXKXKXKXKXKXKXKXKXKXKXKXKXKXKXKXKXKXKXKX",
"KXKXKXKXKXKXKXKXKXKXKXKXKXKXKXKXKXKXKXKXKXKXKXKXKXKXKXKXKXKXKXKXKXKXKXKXKXKXKXKXKXKXKXKXKXKXKXKXKXKXKXKXKXKXKXKXKXKXKXKXKXKXKXKX",
"KXKXKXKXKXKXKXKXKXKXKXKXKXKXKXKXKXKXKXKXKXKXKXKXKXKXKXKXKXKXKXKXKXKXKXKXKXKXKXKXKXKXKXKXKXKXKXKXKXKXKXKXKXKXKXKXKXKXKXKXKXKXKXKX"
};
